<svg xmlns="http://www.w3.org/2000/svg" width="32.6" height="32.6" viewBox="0 0 32.6 32.6">
  <g id="money" transform="translate(0)">
    <path id="Path_8486" data-name="Path 8486" d="M16.3,32.6A16.3,16.3,0,0,1,4.774,4.774,16.3,16.3,0,0,1,27.826,27.826,16.193,16.193,0,0,1,16.3,32.6Zm0-30.562A14.262,14.262,0,1,0,30.562,16.3,14.279,14.279,0,0,0,16.3,2.037Z" transform="translate(0 0)" fill="#fa9600"/>
    <path id="Path_8487" data-name="Path 8487" d="M188.584,105.169a2.547,2.547,0,1,1,2.547-2.547,1.019,1.019,0,0,0,2.038,0,4.591,4.591,0,0,0-3.566-4.469V97.019a1.019,1.019,0,0,0-2.037,0v1.134a4.584,4.584,0,0,0,1.019,9.053,2.547,2.547,0,1,1-2.547,2.547,1.019,1.019,0,1,0-2.037,0,4.591,4.591,0,0,0,3.566,4.469v1.134a1.019,1.019,0,0,0,2.037,0v-1.134a4.584,4.584,0,0,0-1.019-9.053Z" transform="translate(-172.284 -89.888)" fill="#fa9600"/>
  </g>
</svg>
