<svg xmlns="http://www.w3.org/2000/svg" width="33.533" height="43.951" viewBox="0 0 33.533 43.951">
  <g id="consulting" transform="translate(1664.52 -346.8)">
    <g id="Group_319" data-name="Group 319" transform="translate(-1664.52 346.8)">
      <path id="Path_8619" data-name="Path 8619" d="M94.213,36.377c-.1-5.973-6.2-7.738-10.664-9.026-.52-.15-1.021-.295-1.49-.439V24.447a8.781,8.781,0,0,0,2.355-2.165H87.13a2.414,2.414,0,0,0,2.411-2.411V16.954a3.1,3.1,0,0,0,.251-1.223v-.908a3.092,3.092,0,0,0-.251-1.222V12.1a12.094,12.094,0,1,0-24.187,0v1.462c0,.012,0,.023,0,.034a3.091,3.091,0,0,0-.255,1.231v.908a3.114,3.114,0,0,0,3.109,3.112h.709a8.736,8.736,0,0,0,3.914,5.6v2.465c-.469.144-.969.289-1.49.439C66.885,28.639,60.778,30.4,60.68,36.377c0,0,0,.009,0,.014v6.7a.858.858,0,0,0,.858.858h11.6a.858.858,0,1,0,0-1.717H62.4V36.4a5.625,5.625,0,0,1,3.013-4.916,19.673,19.673,0,0,1,4.567-1.935l2.074,4.041a.867.867,0,0,0,1.244.32l.925-.624.794,2.984-1.36,5.966h-1.86a.858.858,0,0,0,0,1.717H93.354a.858.858,0,0,0,.858-.858v-6.7s0-.009,0-.014ZM83.072,29l.171.05-1.484,2.894-2.777-1.873,2.353-1.587C81.882,28.656,82.463,28.824,83.072,29Zm-5.625,2.106,1.721,1.161-.832,3.127h-1.78l-.832-3.126Zm0-2.071-2.9-1.953V25.275a8.7,8.7,0,0,0,5.792,0v1.807ZM84.44,12.252,84.4,12.23c-1.761-1.121-3.283-2.09-5.666-1.408l-.066.022c-.505.19-.965.367-1.409.538-2.715,1.045-4.2,1.616-6.81,1.542v-.687a6.993,6.993,0,1,1,13.987,0v.016Zm3.385,7.62a.7.7,0,0,1-.694.694H85.42a8.638,8.638,0,0,0,.554-1.724h.709a3.088,3.088,0,0,0,1.142-.218v1.248Zm.251-4.141a1.4,1.4,0,0,1-1.392,1.395h-.527c0-.021,0-3.695,0-3.695h.526a1.394,1.394,0,0,1,1.392,1.392v.908ZM68.21,17.125a1.4,1.4,0,0,1-1.392-1.395v-.908A1.394,1.394,0,0,1,68.21,13.43h.526s0,3.673,0,3.695Zm.542-5.412H68.21a3.091,3.091,0,0,0-1.137.216,10.376,10.376,0,0,1,20.749,0,3.091,3.091,0,0,0-1.139-.217h-.542a8.71,8.71,0,0,0-17.388,0ZM70.5,17.9v0a7.033,7.033,0,0,1-.051-.832V14.64c2.937.072,4.689-.6,7.427-1.657.431-.166.877-.338,1.363-.52,1.622-.453,2.555.141,4.24,1.214.292.186.613.39.957.6v2.784a6.949,6.949,0,0,1-.945,3.5H77.446a.858.858,0,0,0,0,1.717h4.646A6.987,6.987,0,0,1,70.5,17.9Zm2.631,14.047L71.65,29.049,71.821,29c.609-.176,1.19-.344,1.737-.516l2.354,1.587Zm2.277,10.29,1.168-5.123h1.731l1.17,5.123Zm17.083,0H81.243L79.88,36.268l.794-2.985.927.625a.867.867,0,0,0,1.244-.32l2.072-4.04a19.674,19.674,0,0,1,4.567,1.935A5.625,5.625,0,0,1,92.5,36.4v5.836Z" transform="translate(-60.68 0)" fill="#fa9600"/>
      <path id="Path_8620" data-name="Path 8620" d="M336.615,441.995h-4.326a.858.858,0,1,0,0,1.717h4.326a.858.858,0,1,0,0-1.717Z" transform="translate(-308.189 -404.053)" fill="#fa9600"/>
    </g>
  </g>
</svg>
